<mxfile host="app.diagrams.net" modified="2023-12-06T06:45:30.463Z" agent="Mozilla/5.0 (X11; Linux x86_64; rv:120.0) Gecko/20100101 Firefox/120.0" etag="Z86T4KEWgmzWL_kw61vc" version="22.1.5" type="device">
  <diagram name="Page-1" id="VcEldbE40SIkFAcgv00z">
    <mxGraphModel dx="1560" dy="891" grid="1" gridSize="10" guides="1" tooltips="1" connect="1" arrows="1" fold="1" page="1" pageScale="1" pageWidth="850" pageHeight="1100" math="0" shadow="0">
      <root>
        <mxCell id="0" />
        <mxCell id="1" parent="0" />
        <mxCell id="SKhvwn-lRZItN7kT1ohc-1" value="&lt;p style=&quot;margin:0px;margin-top:4px;margin-left:10px;text-align:left;&quot;&gt;&lt;b&gt;ibd&lt;/b&gt;   Trajektorienplanung&lt;/p&gt;" style="html=1;shape=mxgraph.sysml.package;labelX=157.42;align=left;spacingLeft=10;html=1;overflow=fill;whiteSpace=wrap;recursiveResize=0;" parent="1" vertex="1">
          <mxGeometry x="70" y="110" width="690" height="400" as="geometry" />
        </mxCell>
        <mxCell id="SKhvwn-lRZItN7kT1ohc-14" value="datenverarbeitung:&lt;br&gt;Datenverarbeitungseinheit" style="strokeColor=inherit;fillColor=inherit;gradientColor=inherit;shape=rect;html=1;fontStyle=1;whiteSpace=wrap;align=center;" parent="1" vertex="1">
          <mxGeometry x="327.5" y="360" width="185" height="80" as="geometry" />
        </mxCell>
        <mxCell id="SKhvwn-lRZItN7kT1ohc-18" value="" style="verticalAlign=bottom;html=1;endArrow=none;edgeStyle=orthogonalEdgeStyle;rounded=0;entryX=0;entryY=0.5;entryDx=0;entryDy=0;exitX=0.5;exitY=0;exitDx=0;exitDy=0;exitPerimeter=0;" parent="1" source="SKhvwn-lRZItN7kT1ohc-32" target="SKhvwn-lRZItN7kT1ohc-30" edge="1">
          <mxGeometry relative="1" as="geometry">
            <mxPoint x="150" y="270" as="sourcePoint" />
            <mxPoint x="330" y="234.375" as="targetPoint" />
          </mxGeometry>
        </mxCell>
        <mxCell id="SKhvwn-lRZItN7kT1ohc-27" value="" style="html=1;shape=mxgraph.sysml.port;sysMLPortType=flowN;rotation=90;" parent="1" vertex="1">
          <mxGeometry x="60" y="215" width="20" height="20" as="geometry" />
        </mxCell>
        <mxCell id="SKhvwn-lRZItN7kT1ohc-30" value="pfadfindung :&lt;br style=&quot;border-color: var(--border-color);&quot;&gt;Pfadfindung" style="strokeColor=inherit;fillColor=inherit;gradientColor=inherit;shape=rect;html=1;fontStyle=1;whiteSpace=wrap;align=center;" parent="1" vertex="1">
          <mxGeometry x="320" y="200" width="185" height="80" as="geometry" />
        </mxCell>
        <mxCell id="SKhvwn-lRZItN7kT1ohc-29" value="" style="html=1;shape=mxgraph.sysml.port;sysMLPortType=doubleH;rotation=90;" parent="1" vertex="1">
          <mxGeometry x="410" y="270" width="20" height="20" as="geometry" />
        </mxCell>
        <mxCell id="SKhvwn-lRZItN7kT1ohc-31" value="" style="html=1;shape=mxgraph.sysml.port;sysMLPortType=doubleH;rotation=90;" parent="1" vertex="1">
          <mxGeometry x="410" y="350" width="20" height="20" as="geometry" />
        </mxCell>
        <mxCell id="SKhvwn-lRZItN7kT1ohc-33" value="" style="html=1;shape=mxgraph.sysml.port;sysMLPortType=flowN;rotation=90;" parent="1" vertex="1">
          <mxGeometry x="492.5" y="230" width="20" height="20" as="geometry" />
        </mxCell>
        <mxCell id="SKhvwn-lRZItN7kT1ohc-34" value="" style="verticalAlign=bottom;html=1;endArrow=none;edgeStyle=orthogonalEdgeStyle;rounded=0;entryX=0.5;entryY=1;entryDx=0;entryDy=0;exitX=0.5;exitY=0;exitDx=0;exitDy=0;exitPerimeter=0;entryPerimeter=0;" parent="1" source="SKhvwn-lRZItN7kT1ohc-27" target="SKhvwn-lRZItN7kT1ohc-32" edge="1">
          <mxGeometry relative="1" as="geometry">
            <mxPoint x="80" y="240" as="sourcePoint" />
            <mxPoint x="320" y="240" as="targetPoint" />
          </mxGeometry>
        </mxCell>
        <mxCell id="SKhvwn-lRZItN7kT1ohc-32" value="" style="html=1;shape=mxgraph.sysml.port;sysMLPortType=flowN;rotation=90;" parent="1" vertex="1">
          <mxGeometry x="310" y="215" width="20" height="20" as="geometry" />
        </mxCell>
        <mxCell id="SKhvwn-lRZItN7kT1ohc-36" value="" style="verticalAlign=bottom;html=1;endArrow=none;edgeStyle=orthogonalEdgeStyle;rounded=0;entryX=0.5;entryY=1;entryDx=0;entryDy=0;exitX=0.5;exitY=0;exitDx=0;exitDy=0;exitPerimeter=0;entryPerimeter=0;" parent="1" source="SKhvwn-lRZItN7kT1ohc-38" target="SKhvwn-lRZItN7kT1ohc-38" edge="1">
          <mxGeometry relative="1" as="geometry">
            <mxPoint x="570" y="239.5" as="sourcePoint" />
            <mxPoint x="800" y="239.5" as="targetPoint" />
          </mxGeometry>
        </mxCell>
        <mxCell id="SKhvwn-lRZItN7kT1ohc-37" value="" style="verticalAlign=bottom;html=1;endArrow=none;edgeStyle=orthogonalEdgeStyle;rounded=0;entryX=0;entryY=0.5;entryDx=0;entryDy=0;exitX=1;exitY=0.5;exitDx=0;exitDy=0;exitPerimeter=0;entryPerimeter=0;" parent="1" source="SKhvwn-lRZItN7kT1ohc-29" target="SKhvwn-lRZItN7kT1ohc-31" edge="1">
          <mxGeometry relative="1" as="geometry">
            <mxPoint x="560" y="320" as="sourcePoint" />
            <mxPoint x="790" y="320" as="targetPoint" />
          </mxGeometry>
        </mxCell>
        <mxCell id="SKhvwn-lRZItN7kT1ohc-39" value="" style="verticalAlign=bottom;html=1;endArrow=none;edgeStyle=orthogonalEdgeStyle;rounded=0;entryX=0.5;entryY=1;entryDx=0;entryDy=0;exitX=0.5;exitY=0;exitDx=0;exitDy=0;exitPerimeter=0;entryPerimeter=0;" parent="1" source="SKhvwn-lRZItN7kT1ohc-33" target="SKhvwn-lRZItN7kT1ohc-38" edge="1">
          <mxGeometry relative="1" as="geometry">
            <mxPoint x="513" y="240" as="sourcePoint" />
            <mxPoint x="800" y="239.5" as="targetPoint" />
          </mxGeometry>
        </mxCell>
        <mxCell id="SKhvwn-lRZItN7kT1ohc-38" value="" style="html=1;shape=mxgraph.sysml.port;sysMLPortType=flowN;rotation=90;" parent="1" vertex="1">
          <mxGeometry x="750" y="230" width="20" height="20" as="geometry" />
        </mxCell>
        <mxCell id="mqgd1BaUzvhrvtb-MQXN-1" value="" style="html=1;shape=mxgraph.sysml.port;sysMLPortType=flowN;rotation=90;" vertex="1" parent="1">
          <mxGeometry x="310" y="246" width="20" height="20" as="geometry" />
        </mxCell>
        <mxCell id="mqgd1BaUzvhrvtb-MQXN-2" value="" style="html=1;shape=mxgraph.sysml.port;sysMLPortType=flowN;rotation=90;" vertex="1" parent="1">
          <mxGeometry x="60" y="246" width="20" height="20" as="geometry" />
        </mxCell>
        <mxCell id="mqgd1BaUzvhrvtb-MQXN-3" value="" style="verticalAlign=bottom;html=1;endArrow=none;edgeStyle=orthogonalEdgeStyle;rounded=0;entryX=0.5;entryY=1;entryDx=0;entryDy=0;exitX=0.5;exitY=0;exitDx=0;exitDy=0;exitPerimeter=0;entryPerimeter=0;" edge="1" parent="1" source="mqgd1BaUzvhrvtb-MQXN-2" target="mqgd1BaUzvhrvtb-MQXN-1">
          <mxGeometry relative="1" as="geometry">
            <mxPoint x="90" y="295" as="sourcePoint" />
            <mxPoint x="320" y="295" as="targetPoint" />
          </mxGeometry>
        </mxCell>
        <mxCell id="mqgd1BaUzvhrvtb-MQXN-7" value="&lt;font style=&quot;font-size: 10px;&quot;&gt;in1 : Umgebungserkennungsdaten&lt;/font&gt;" style="text;html=1;strokeColor=none;fillColor=none;align=center;verticalAlign=middle;whiteSpace=wrap;rounded=0;" vertex="1" parent="1">
          <mxGeometry x="-30" y="180" width="60" height="30" as="geometry" />
        </mxCell>
        <mxCell id="mqgd1BaUzvhrvtb-MQXN-8" value="&lt;font style=&quot;font-size: 10px;&quot;&gt;in2 : Hindernisvermeidungsdaten&lt;/font&gt;" style="text;html=1;strokeColor=none;fillColor=none;align=center;verticalAlign=middle;whiteSpace=wrap;rounded=0;" vertex="1" parent="1">
          <mxGeometry x="-30" y="265" width="60" height="30" as="geometry" />
        </mxCell>
        <mxCell id="mqgd1BaUzvhrvtb-MQXN-9" value="&lt;font style=&quot;font-size: 10px;&quot;&gt;out1 : Trajektorie&lt;/font&gt;" style="text;html=1;strokeColor=none;fillColor=none;align=center;verticalAlign=middle;whiteSpace=wrap;rounded=0;" vertex="1" parent="1">
          <mxGeometry x="780" y="190" width="60" height="30" as="geometry" />
        </mxCell>
      </root>
    </mxGraphModel>
  </diagram>
</mxfile>
